HIERARCHY
ROOT Hips
{
	OFFSET 0.000000 88.474243 0.000000
	CHANNELS 6 Xposition Yposition Zposition Zrotation Yrotation Xrotation 
	JOINT Hips_Spine
	{
		OFFSET 0.000000 0.000000 0.000000
		CHANNELS 3 Zrotation Yrotation Xrotation
		JOINT Spine
		{
			OFFSET 0.005100 8.711998 -0.691000
			CHANNELS 3 Zrotation Yrotation Xrotation
			JOINT Spine1
			{
				OFFSET -0.009200 8.660301 -1.275000
				CHANNELS 3 Zrotation Yrotation Xrotation
				JOINT Spine2
				{
					OFFSET 0.006300 9.852501 -1.857000
					CHANNELS 3 Zrotation Yrotation Xrotation
					JOINT Spine2_Neck
					{
						OFFSET 0.000000 0.000000 0.000000
						CHANNELS 3 Zrotation Yrotation Xrotation
						JOINT Neck
						{
							OFFSET 0.016300 11.420799 -0.263300
							CHANNELS 3 Zrotation Yrotation Xrotation
							End Site #name: Head
							{
								OFFSET -0.019200 9.262405 2.362500
							}
						}
					}
					JOINT Spine2_LeftShoulder
					{
						OFFSET 0.000000 0.000000 0.000000
						CHANNELS 3 Zrotation Yrotation Xrotation
						JOINT LeftShoulder
						{
							OFFSET 5.616900 6.732201 -0.345700
							CHANNELS 3 Zrotation Yrotation Xrotation
							JOINT LeftArm
							{
								OFFSET 10.664888 -0.183372 -2.440700
								CHANNELS 3 Zrotation Yrotation Xrotation
								JOINT LeftForeArm
								{
									OFFSET 27.459126 0.000000 0.000000
									CHANNELS 3 Zrotation Yrotation Xrotation
									End Site #name: LeftHand
									{
										OFFSET 21.306858 0.000000 0.000000
									}
								}
							}
						}
					}
					JOINT Spine2_RightShoulder
					{
						OFFSET 0.000000 0.000000 0.000000
						CHANNELS 3 Zrotation Yrotation Xrotation
						JOINT RightShoulder
						{
							OFFSET -5.580300 6.737503 -0.344400
							CHANNELS 3 Zrotation Yrotation Xrotation
							JOINT RightArm
							{
								OFFSET -10.679335 -0.188484 -2.383900
								CHANNELS 3 Zrotation Yrotation Xrotation
								JOINT RightForeArm
								{
									OFFSET -27.503529 0.000000 0.000000
									CHANNELS 3 Zrotation Yrotation Xrotation
									End Site #name: RightHand
									{
										OFFSET -21.306808 0.000000 0.000000
									}
								}
							}
						}
					}
				}
			}
		}
	}
	JOINT Hips_LeftUpLeg
	{
		OFFSET 0.000000 0.000000 0.000000
		CHANNELS 3 Zrotation Yrotation Xrotation
		JOINT LeftUpLeg
		{
			OFFSET 6.857700 -6.739601 0.312100
			CHANNELS 3 Zrotation Yrotation Xrotation
			JOINT LeftLeg
			{
				OFFSET -0.367590 -34.731552 -4.572400
				CHANNELS 3 Zrotation Yrotation Xrotation
				End Site #name: LeftFoot
				{
					OFFSET 0.367590 -34.656704 -6.067400
				}
			}
		}
	}
	JOINT Hips_RightUpLeg
	{
		OFFSET 0.000000 0.000000 0.000000
		CHANNELS 3 Zrotation Yrotation Xrotation
		JOINT RightUpLeg
		{
			OFFSET -6.876100 -6.733299 0.301000
			CHANNELS 3 Zrotation Yrotation Xrotation
			JOINT RightLeg
			{
				OFFSET 0.347353 -34.795158 -4.515900
				CHANNELS 3 Zrotation Yrotation Xrotation
				End Site #name: RightFoot
				{
					OFFSET -0.347353 -34.589367 -6.070300
				}
			}
		}
	}
}
MOTION
Frames: 7
Frame Time: 0.041667
-0.078274 0.070458 0.048151 -3.684012 1.443335 -4.321788 -0.000000 0.000000 0.000000 -0.620693 0.764359 5.820138 -1.466237 1.320642 9.913258 0.000000 0.000000 0.000000 -1.804743 1.065957 9.545359 -0.837562 -3.838961 3.720446 -1.850454 1.040525 9.918867 -1.118246 -1.223768 0.147597 -68.570069 -24.064461 18.088535 154.061118 -87.777424 -154.484946 -1.469673 1.707487 10.736591 -4.714685 -0.389392 1.215969 77.308004 -0.909605 6.165542 171.924713 84.134019 173.873880 0.000000 -0.000000 0.000000 7.312919 1.218545 -18.980246 -1.495014 0.477022 33.511455 0.000000 0.000000 -0.000000 -4.222218 -2.520497 -15.178909 -0.443885 -2.124653 27.751459 
-0.015949 0.096999 0.172285 -4.640924 -1.594271 -3.873080 -0.000000 0.000000 0.000000 -0.593971 0.313090 5.552061 -2.056044 1.384755 10.410571 0.000000 0.000000 0.000000 -1.836545 1.398936 10.307277 -1.543815 -4.226254 4.939890 -2.004679 1.397902 10.547980 0.358390 1.108081 -0.326613 -68.268492 -22.239825 29.504573 179.167232 -83.979309 -179.259077 -1.752563 1.170192 10.050312 -5.264800 -2.765302 0.741045 83.340652 -8.319474 5.445880 -171.372907 86.358124 -171.420377 0.000000 -0.000000 0.000000 7.676184 0.471834 -22.311788 -0.628363 0.995928 32.421060 0.000000 0.000000 0.000000 -3.081794 -3.477416 -15.766722 0.940766 -0.830515 27.065304 
0.175883 0.097187 0.148023 -4.559089 -4.958360 -3.230433 -0.000000 0.000000 0.000000 -0.666312 0.416622 5.434272 -2.300250 1.427133 10.598680 0.000000 0.000000 0.000000 -2.222233 1.583047 10.972838 -1.693277 -3.797283 4.672467 -1.926473 1.543478 10.541832 0.739135 0.609000 -0.319241 -69.743475 -17.871482 32.529054 -178.597795 -81.958897 178.526667 -1.978975 1.385177 10.062318 -4.100829 -2.207084 0.748957 81.677631 -9.320810 8.537428 -167.663087 86.930297 -167.875111 0.000000 -0.000000 0.000000 8.021719 1.070494 -22.683768 -0.839645 0.479154 34.466232 0.000000 0.000000 0.000000 -2.806889 -3.428646 -16.564513 0.719555 -1.060255 26.458194 
0.318975 0.071886 0.130172 -4.356749 -6.529306 -2.820589 -0.000000 -0.000000 0.000000 -0.548531 0.659064 5.160576 -2.163447 1.594614 10.450704 0.000000 0.000000 0.000000 -2.087656 1.678517 10.476909 -1.755100 -3.926332 5.122622 -1.978101 1.647965 10.514922 1.418265 0.367317 -0.103711 -70.380654 -17.202116 33.114440 -178.488396 -81.470615 178.411194 -2.063325 1.570389 9.947256 -4.079993 -1.260443 1.162578 79.568353 -8.494088 9.960363 -167.903812 85.341601 -168.324848 0.000000 -0.000000 0.000000 7.630137 1.256750 -23.179839 -1.154855 0.401870 35.002465 0.000000 0.000000 0.000000 -2.418439 -3.127562 -17.415521 0.540580 -0.642677 26.609839 
0.399063 0.065505 0.194005 -4.491632 -6.594873 -2.553530 -0.000000 -0.000000 0.000000 -0.483359 0.748762 5.046907 -1.979524 1.576113 10.075860 0.000000 0.000000 0.000000 -2.025568 1.645213 10.109142 -1.618255 -3.920950 5.351178 -1.950915 1.650443 10.256300 1.597422 0.393139 0.094414 -70.529165 -18.023347 32.146888 -176.648226 -83.205210 176.820743 -2.040245 1.577966 9.921011 -4.520425 -1.791575 1.321337 79.402688 -8.460454 9.196526 -163.777270 85.741373 -164.391741 0.000000 -0.000000 0.000000 7.186464 1.373716 -23.076659 -1.242871 0.504809 34.407904 0.000000 0.000000 0.000000 -2.208177 -2.967836 -17.721223 0.590755 -0.450001 26.211913 
0.489165 0.056912 0.258692 -4.716501 -5.838438 -2.527686 -0.000000 -0.000000 0.000000 -0.485272 0.778581 5.029912 -1.882583 1.517295 9.755381 0.000000 0.000000 0.000000 -1.936243 1.530396 9.894257 -1.358823 -3.723585 5.307879 -1.916033 1.575754 9.984777 1.641793 0.632088 0.180133 -70.767250 -18.823609 30.913928 -174.859858 -84.281473 175.070712 -1.985621 1.525270 9.851870 -4.805107 -2.318299 1.355705 79.887594 -8.487572 7.833911 -163.210515 85.846673 -163.828621 0.000000 -0.000000 0.000000 6.917269 1.372307 -22.892973 -1.264479 0.644885 33.936889 0.000000 -0.000000 0.000000 -2.287079 -2.905181 -17.492023 0.410743 -0.577041 25.750289 
0.597164 0.064721 0.330807 -4.882656 -5.375576 -2.508665 -0.000000 -0.000000 0.000000 -0.500239 0.794557 4.981812 -1.833286 1.501744 9.716106 0.000000 0.000000 0.000000 -1.899845 1.445741 9.845043 -1.071280 -3.523716 5.232605 -1.888798 1.503462 9.809290 1.618559 0.855173 0.190682 -71.002191 -19.261182 29.585326 -174.961072 -84.145408 175.079872 -1.896241 1.474111 9.790716 -4.493829 -2.517670 1.224466 80.286708 -8.508552 7.278731 -165.691190 85.524953 -166.184018 0.000000 -0.000000 0.000000 6.711407 1.290332 -22.489220 -1.251668 0.654990 33.562723 -0.000000 -0.000000 0.000000 -2.640557 -2.890717 -17.062629 0.363314 -0.722607 25.363983 
